<svg xmlns="http://www.w3.org/2000/svg" height="48" viewBox="0 -960 960 960" width="48"><path d="M445-190.826h70v-40h55q15.21 0 25.105-9.827Q605-250.479 605-265.528v-135.059q0-15.007-9.895-25.003-9.895-9.997-25.164-9.997H425v-65h180v-69.761h-90v-40h-70v40h-55q-15.21 0-25.105 9.928T355-535.587v135.059q0 15.151 9.895 25.046t25.164 9.895H535v65H355v69.761h90v40ZM220.63-62.804q-30.41 0-53.857-23.28-23.447-23.279-23.447-54.025v-679.782q0-30.845 23.447-54.194 23.447-23.35 53.857-23.35h358.674l237.609 236.37v520.956q0 30.746-23.517 54.025-23.517 23.28-54.026 23.28H220.63ZM536-660.065v-159.826H220.63v679.782h518.74v-519.956H536ZM220.63-819.891v171.782-171.782 679.782-679.782Z"/></svg>