<svg xmlns="http://www.w3.org/2000/svg" height="48" viewBox="0 -960 960 960" width="48"><path d="M474.568-135.152q5.045 0 11.147-2.381 6.103-2.38 10.524-6.619l326.87-327.87q17.555-17.568 28.745-40.484 11.189-22.915 11.189-45.287 0-24.25-9.407-46.925-9.407-22.675-26.44-40.695L675.043-797.565q-12.239-11.478-32-18.359-19.761-6.88-39.445-6.88-19.388 0-37.895 6.761-18.507 6.76-31.029 17l-12 13.239 78.636 78.408q12.886 15.113 24.244 36.663 11.359 21.55 11.359 45.379 0 41.547-32.857 74.701-32.857 33.153-75.125 33.153-27.699 0-46.87-8.598-19.17-8.598-34.094-23.678l-68.75-69.354-178.789 179.028q-4.95 4.711-6.95 9.845-2 5.133-2 11.87 0 10.952 7.359 18.43 7.359 7.479 18.231 7.479 6.697 0 11.8-3 5.102-3 9.284-7l137.131-137.131L422.891-492 286.95-355.847Q282-350.87 280-345.219t-2 11.986q0 10.2 7.239 18.119 7.239 7.918 18.718 7.918 6.285 0 11.43-2.5 5.144-2.5 9.54-6.514l136.399-137.638 47.609 47.609-137.153 136.145q-2.978 4.746-5.978 10.192-3 5.445-3 12.032 0 11.335 8.038 18.885 8.038 7.55 18.085 7.55 6.403 0 11.08-2.119 4.677-2.12 9.71-6.881l136.892-137.13 47.608 47.608-136.934 137.174q-4.718 4.957-6.837 10.608-2.12 5.651-2.12 10.985 0 12.416 7.217 19.227 7.218 6.811 19.025 6.811Zm-.504 72.63q-36.674 0-64.332-24.024-27.658-24.024-33.602-61.29-33.521-5.121-58.043-29.381-24.522-24.261-28.239-58.305-33.565-5.478-57.065-28.598-23.5-23.119-27.979-56.923-39-6.479-64.641-35.344-25.641-28.865-25.641-69.147 0-17.944 8.343-37.352 8.344-19.408 21.374-33.027l231.652-232.652 117.152 116.913q6.761 8 16.294 13.38 9.533 5.381 19.732 5.381 11.033 0 22.102-10.684 11.068-10.684 11.068-22.948 0-6.18-4.619-13.372-4.62-7.192-11.381-15.431L403.576-797.985q-12.815-12.58-31.554-18.7-18.739-6.119-36.633-6.119-17.804 0-35.792 6.119-17.988 6.12-29.451 18.499L130.174-659.37q-19.413 19.653-26.696 41.12-7.282 21.467-6.521 47.293.239 14.218 7.858 27.305 7.62 13.087 16.859 23.543l-55.24 55.239Q48.479-482.348 36-511.544q-12.478-29.195-13.478-60.913-1-39.804 14.065-76.673Q51.652-686 78.739-713.087l141.239-141.478q20.435-20.196 51.451-31.055 31.015-10.858 64.747-10.858 33.406 0 64.411 11.119 31.004 11.12 53.891 33.642l12.239 13 13-13q24.044-22.283 56.696-33.522 32.652-11.239 67.62-11.239 38.771 0 68.989 11.098 30.217 11.097 50.886 31.767l156.918 156.439q28.331 28.473 42.492 64.835 14.16 36.361 14.16 74.698 0 34.955-16.924 71.319-16.924 36.365-44.532 64.452L547.674-93q-13.717 13.717-33.597 22.098-19.88 8.38-40.013 8.38ZM355.761-635.39Z"/></svg>