<svg xmlns="http://www.w3.org/2000/svg" height="48" viewBox="0 -960 960 960" width="48"><path d="M730.848-216.239q27.677 0 47.719-19.559t20.042-47.261q0-27.463-20.042-47.082-20.042-19.62-48.131-19.62-27.673 0-46.511 19.353-18.838 19.353-18.838 47.467 0 28.114 19.25 47.408t46.511 19.294Zm-.447 133.76q33.538 0 62.819-15.116 29.281-15.116 47.389-42.644-25.746-13-53.391-22t-56.276-9q-28.631 0-56.276 9-27.645 9-53.579 22 18.239 28 47.007 42.88 28.768 14.88 62.307 14.88Zm-550.292-19.608q-32.526 0-54.915-22.627-22.39-22.627-22.39-54.916v-599.261q0-31.526 22.39-54.415 22.389-22.89 54.915-22.89h599.782q32.624 0 55.084 22.89 22.46 22.889 22.46 54.415v341.065q-17.957-11.435-37.652-18.772-19.696-7.337-39.892-11.57v-310.723H180.109v599.261h295.784q2.968 21.002 8.876 40.967 5.907 19.964 14.579 36.576H180.109Zm0-111.913v34.37-599.261 310.717-4.522V-214Zm96.435-59.261h203.804q4-18.804 10.619-35.848 6.62-17.043 17.381-33.326H276.544v69.174Zm0-171.413h339.434q15.326-8.13 31.599-14.005 16.272-5.874 35.879-9.017v-46.152H276.544v69.174Zm0-170.652h406.912V-684.5H276.544v69.174ZM730.473-18.304q-81.571 0-139.566-57.875-57.994-57.875-57.994-138.981 0-81.062 57.859-139.918 57.86-58.857 139.951-58.857 81.071 0 139.565 58.857 58.494 58.856 58.494 139.918 0 81.106-58.369 138.98-58.369 57.876-139.94 57.876Z"/></svg>