<svg xmlns="http://www.w3.org/2000/svg" height="48" viewBox="0 -960 960 960" width="48"><path d="M324-274h60v-45h48q16 0 25.5-12t9.5-27v-114.745q0-16.255-9.5-27.755T432-512H297v-69h170v-60h-83v-45h-60v45h-48q-16 0-27.5 12T237-600.883v113.766Q237-471 248.5-461.5T276-452h131v73H237v60h87v45Zm326-35 60-60H590l60 60Zm-60-272h120l-60-60-60 60ZM142.152-145.609q-30.745 0-54.025-23.279-23.28-23.279-23.28-54.025v-514.174q0-30.844 23.28-54.194 23.28-23.349 54.025-23.349h675.696q30.844 0 54.194 23.349 23.349 23.35 23.349 54.194v514.174q0 30.746-23.349 54.025-23.35 23.279-54.194 23.279H142.152Zm0-77.304h675.696v-514.174H142.152v514.174Zm0 0v-514.174 514.174Z"/></svg>