<svg xmlns="http://www.w3.org/2000/svg" height="48" viewBox="0 -960 960 960" width="48"><path d="M766-109.652q-44.674 0-78.391-26.957-33.718-26.956-41.718-64.674H443q-68.073 0-111.895-43.906t-43.822-112.098q0-67.952 43.822-112.191Q374.927-513.717 443-513.717h77q39.682 0 64.982-25.06 25.301-25.059 25.301-64.402t-25.263-64.723q-25.262-25.381-64.89-25.381H315.348q-10.478 37.718-43.542 64.674-33.063 26.957-77.886 26.957-52.012 0-88.14-36.107t-36.128-88.272q0-52.165 36.098-88.741T194-851.348q44.791 0 77.83 27.457 33.04 27.456 43.932 64.174H520q68.414 0 112.566 44.115 44.151 44.115 44.151 112.478t-44.151 112.102Q588.414-447.283 520-447.283h-77q-39.523 0-64.403 25.23-24.88 25.229-24.88 64.811 0 40.003 24.88 64.764 24.88 24.761 64.286 24.761h203.008q9.537-36.53 42.452-64.081 32.915-27.55 77.737-27.55 52.429 0 88.848 36.313 36.42 36.312 36.42 88.772 0 52.459-36.39 88.535-36.389 36.076-88.958 36.076ZM193.688-676.326q21.029 0 36.008-14.167 14.978-14.166 14.978-35.195t-14.754-36.008q-14.755-14.978-35.784-14.978-21.029 0-35.419 14.754-14.391 14.755-14.391 35.784 0 21.029 14.167 35.419 14.166 14.391 35.195 14.391Z"/></svg>