<svg xmlns="http://www.w3.org/2000/svg" height="48" viewBox="0 -960 960 960" width="48"><path d="M109.109-191.565q-32.87 0-55.207-22.337-22.337-22.337-22.337-55.207V-691.13q0-32.52 22.337-54.912 22.337-22.393 55.207-22.393H531.13q32.52 0 54.912 22.393 22.393 22.392 22.393 54.912v422.021q0 32.87-22.393 55.207-22.392 22.337-54.912 22.337H109.109Zm608.848-317.718q-20.543 0-34.609-14.065-14.065-14.066-14.065-34.609v-162.804q0-19.736 14.065-33.705 14.066-13.969 34.609-13.969h162.804q19.736 0 33.705 13.969 13.969 13.969 13.969 33.705v162.804q0 20.543-13.969 34.609-13.969 14.065-33.705 14.065H717.957Zm26.956-75.63h107.891v-107.891H744.913v107.891ZM107.196-267.196h425.608v-425.608H107.196v425.608ZM160.761-360h320l-105-140-75 100-56-73-84 113Zm557.196 168.435q-20.543 0-34.609-13.994-14.065-13.994-14.065-34.68v-162.804q0-19.737 14.065-33.706 14.066-13.968 34.609-13.968h162.804q19.736 0 33.705 13.968 13.969 13.969 13.969 33.706v162.804q0 20.686-13.969 34.68t-33.705 13.994H717.957Zm26.956-75.631h107.891v-107.891H744.913v107.891Zm-637.717 0v-425.608 425.608Zm637.717-317.717v-107.891 107.891Zm0 317.717v-107.891 107.891Z"/></svg>