<svg xmlns="http://www.w3.org/2000/svg" height="48" viewBox="0 -960 960 960" width="48"><path d="M140.138-115.652q-50.34 0-84.055-33.594-33.713-33.595-33.713-83.602 0-22.319 8.521-42.323 8.522-20.003 22.805-35.764v-229.891h89.152v-234.761h318.761l192.152 450.544q6.761 17.717 13 36.047Q673-270.667 673-252.848q0 57.868-40.518 97.532-40.517 39.664-97.678 39.664-40.209 0-73.843-21.381-33.635-21.38-50.874-58.619H251.822q-12.88 36.478-43.352 58.239-30.472 21.761-68.332 21.761Zm602.623-40v-659.935h75.63v584.304h120v75.631h-195.63Zm-603.21-34.196q18.942 0 31.598-12.259 12.655-12.26 12.655-30.632 0-18.798-12.545-31.573-12.545-12.775-31.339-12.775-19.069 0-31.212 12.6-12.143 12.601-12.143 31.477 0 18.876 12.235 31.019 12.234 12.143 30.751 12.143Zm394.988 0q26.656 0 45.461-18.193 18.804-18.193 18.804-44.661 0-26.885-18.641-45.635-18.641-18.75-45.272-18.75-26.909 0-45.117 18.621-18.209 18.622-18.209 45.531 0 26.91 18.368 44.998 18.367 18.089 44.606 18.089Zm-282.778-81.435h146.506q2.615-16.693 8.337-33.183 5.722-16.491 16.679-30.73H303.087l-123-130h-50.761v113.913h10.478q37.987 0 68.583 22.381 30.596 22.38 43.374 57.619Zm84.522-140.543h198.456L411.802-699.957H218.478v164.327l117.805 123.804Zm-33.196 76.63-19.5-19.88q-19.5-19.881-42.5-44.381t-42-45.119l-19-20.62h-50.761 50.761l123 130h120.196-120.196Z"/></svg>