<svg xmlns="http://www.w3.org/2000/svg" height="48" viewBox="0 -960 960 960" width="48"><path d="M226.327-144.804q-51.392 0-87.881-35.44-36.489-35.439-36.968-86.886H25.326v-471.761q0-30.411 23.28-53.858 23.279-23.447 54.024-23.447h584.609v169.218h109.696l137.739 182.263v197.585h-78.196q-.478 51.427-36.84 86.876-36.361 35.45-87.759 35.45-51.082 0-87.339-35.44-36.257-35.439-36.736-86.886h-257.13q-.478 51.521-36.716 86.924-36.238 35.402-87.631 35.402Zm-.149-72.044q21.831 0 37.381-15.7 15.55-15.699 15.55-37.434t-15.562-37.453q-15.561-15.717-37.434-15.717-21.874 0-37.472 15.7-15.598 15.699-15.598 37.434t15.602 37.453q15.601 15.717 37.533 15.717ZM102.63-344.435h24.562q18.721-24.522 43.719-38.022 24.999-13.5 54.283-13.5 29.284 0 54.659 14.231 25.374 14.231 44.19 37.291h285.892v-394.456H102.63v394.456Zm629.113 127.587q21.831 0 37.381-15.7 15.55-15.699 15.55-37.434t-15.561-37.453q-15.562-15.717-37.435-15.717-21.874 0-37.472 15.7-15.597 15.699-15.597 37.434t15.601 37.453q15.601 15.717 37.533 15.717Zm-44.504-211.717h177.457l-106.153-140.87h-71.304v140.87ZM357.283-531.043Z"/></svg>