<svg xmlns="http://www.w3.org/2000/svg" height="48" viewBox="0 -960 960 960" width="48"><path d="M682.957-448.522 448.522-682.957 682.957-917.63 917.63-682.957 682.957-448.522ZM84.869-526.891v-331.152h331.392v331.152H84.869ZM527.652-84.869V-415.5h330.391v330.63H527.652Zm-442.783 0v-331.392h331.392v331.392H84.869Zm77.544-519.327h176.304v-176.543H162.413v176.543Zm523.544 49.457 125.456-125.218-125.456-125.695-125.218 125.695 125.218 125.218Zm-81 392.326h175.782v-175.543H604.957v175.543Zm-442.544 0h176.304v-176.304H162.413v176.304Zm176.304-441.783Zm222.022-76ZM338.717-338.717Zm266.24.761Z"/></svg>