<svg xmlns="http://www.w3.org/2000/svg" height="48" viewBox="0 -960 960 960" width="48"><path d="M480-398.043ZM62.804-142.804v-432.174q0-30.844 22.96-54.194 22.962-23.35 54.345-23.35h129.826v-87.369q0-30.845 22.96-54.194 22.961-23.35 54.344-23.35h266.522q30.844 0 54.194 23.35 23.349 23.349 23.349 54.194v87.369h129.587q30.845 0 54.194 23.35 23.35 23.35 23.35 54.194v432.174H62.805ZM314.065-359.37v60h-77.543v-60h-96.413v139.261h680.782V-359.37h-96.413v60h-77.304v-60H314.065ZM140.109-574.978v139.261h96.413v-60h77.543v60h333.109v-60h77.304v60h96.413v-139.261H140.109Zm207.13-77.544h266.522v-87.369H347.239v87.369Z"/></svg>