<svg xmlns="http://www.w3.org/2000/svg" height="48" viewBox="0 -960 960 960" width="48"><path d="M738.491-30.174q-83.317 0-143.121-59.741-59.805-59.741-59.805-142.955 0-83.313 59.814-143.123 59.814-59.811 142.63-59.811 82.817 0 143.121 59.813 60.305 59.814 60.305 143.131 0 83.316-60.219 143.001-60.218 59.685-142.725 59.685Zm74.009-97.739 30.435-30.435-85.478-77.092v-133.517h-46.674v146.863L812.5-127.913ZM506.674-557.565h311.174v75.423q21.134 5.36 40.48 15.251 19.346 9.891 37.063 22.13v-292.326q0-30.844-23.349-54.194-23.35-23.349-54.194-23.349H142.152q-30.745 0-54.025 23.349-23.28 23.35-23.28 54.194v514.174q0 30.746 23.28 54.025t54.025 23.279h348.044q-5.717-19.126-9.656-38.391-3.939-19.266-3.939-38.913H142.152v-514.174h364.522v179.522ZM142.152-222.913v-19 19-514.174 514.174Z"/></svg>