<svg xmlns="http://www.w3.org/2000/svg" height="48" viewBox="0 -960 960 960" width="48"><path d="M773.717-100.174 518.435-355.696l67.956-67.956L841.913-168.37l-68.196 68.196Zm-589.804 0-67.717-67.956 294.282-294.283L307.891-566l-24.282 24.283-43.892-43.413v83.652L213-474.522 82.935-604.587l26.717-26.717h85.13l-48.652-47.653 142.566-142.086q18-18 39.739-25 21.739-7 47.978-7 26 0 47.859 9.619 21.858 9.62 40.337 27.381L352.848-704.522l49.282 50.044-25.521 25.282 100.826 99.826 119.391-119.391q-7-11.522-11.119-28.88-4.12-17.359-4.12-36.12 0-55 40.478-96.098 40.479-41.098 96.718-41.098 16.239 0 28.858 3.479 12.62 3.478 21.577 9.717l-88.805 89.044L753.5-675.63l89.565-89.805q5.957 8.957 9.957 23.196 4 14.239 4 30.478 0 56.239-40.859 96.718-40.859 40.478-96.098 40.478-17.761 0-30.38-2-12.62-2-23.141-6.239l-482.631 482.63Z"/></svg>