<svg xmlns="http://www.w3.org/2000/svg" height="48" viewBox="0 -960 960 960" width="48"><path d="M427.587-32.891 373.478-87l75.087-74.848h-123.5q-12.549 41.36-46.744 66.876-34.194 25.516-78.335 25.516-54.467 0-92.498-38.032-38.032-38.031-38.032-92.498 0-44.141 25.516-78.335 25.516-34.195 66.876-46.744v-311.109q-41.435-11.239-66.913-45.469-25.479-34.23-25.479-78.371 0-54.883 38.032-93.207 38.031-38.323 92.498-38.323 44.141 0 78.335 26.016 34.195 26.016 46.744 66.376h122.261L373.717-873l53.87-54.109L595.935-760 427.587-592.891 373.717-647l74.609-74.848H325.065q-9.478 31.957-32.217 54.696-22.739 22.739-53.696 30.978v311.042q30.669 9.815 53.429 32.568 22.759 22.753 32.484 53.412h122.261L373.478-313l54.109-54.109L595.935-200 427.587-32.891Zm332.455-36.565q-54.455 0-92.52-38.036-38.066-38.035-38.066-92.508 0-44.25 25.516-78.268 25.516-34.019 66.876-46.797v-311.109q-41.435-11.478-66.913-45.515-25.479-34.037-25.479-78.311 0-54.89 38.006-93.217t92.437-38.327q54.431 0 93.038 38.327T891.544-760q0 44.294-25.979 78.321-25.978 34.027-66.413 45.505v311.109q40.36 13.022 66.376 46.895 26.016 33.873 26.016 78.184 0 54.467-38.315 92.498-38.315 38.032-93.187 38.032ZM199.88-147q23.309 0 38.834-15.118 15.525-15.118 15.525-37.762 0-23.309-15.497-38.834-15.497-15.525-38.76-15.525-23.196 0-38.089 15.497Q147-223.245 147-199.982q0 23.196 15.118 38.089Q177.236-147 199.88-147Zm560 0q23.309 0 38.834-15.118 15.525-15.118 15.525-37.762 0-23.309-15.497-38.834-15.497-15.525-38.76-15.525-23.196 0-38.089 15.497Q707-223.245 707-199.982q0 23.196 15.118 38.089Q737.236-147 759.88-147Zm-560-560q23.309 0 38.834-15.118 15.525-15.118 15.525-37.762 0-23.309-15.497-38.834-15.497-15.525-38.76-15.525-23.196 0-38.089 15.497Q147-783.245 147-759.982q0 23.196 15.118 38.089Q177.236-707 199.88-707Zm560 0q23.309 0 38.834-15.118 15.525-15.118 15.525-37.762 0-23.309-15.497-38.834-15.497-15.525-38.76-15.525-23.196 0-38.089 15.497Q707-783.245 707-759.982q0 23.196 15.118 38.089Q737.236-707 759.88-707ZM200-200Zm560 0ZM200-760Zm560 0Z"/></svg>